<svg width="32" height="32" viewBox="0 0 24 24" fill="none" xmlns="http://www.w3.org/2000/svg">
  <path d="M12 2C6.48 2 2 6.48 2 12C2 17.52 6.48 22 12 22C17.52 22 22 17.52 22 12C22 6.48 17.52 2 12 2ZM10 17L6 13L7.41 11.59L10 14.17L16.59 7.58L18 9L10 17Z" fill="hsl(var(--primary))"/>
  <path d="M13.5 7A1.5 1.5 0 1013.5 10A1.5 1.5 0 0013.5 7M10.5 7A1.5 1.5 0 1010.5 10A1.5 1.5 0 0010.5 7M13.5 14A1.5 1.5 0 1013.5 17A1.5 1.5 0 0013.5 14M10.5 14A1.5 1.5 0 1010.5 17A1.5 1.5 0 0010.5 14" fill="hsl(var(--accent))" fill-opacity="0.7"/>
</svg>
